<svg xmlns="http://www.w3.org/2000/svg" fill="none" viewBox="0 0 222 59"><style>:root{color:hsla(0,0%,4%)}@media (prefers-color-scheme:dark){:root{color:hsla(0,0%,96%)}}</style>
<path d="M74.244 28L69.402 22.402V28H67.35V15.49H69.402V21.196L74.262 15.49H76.836L71.4 21.754L76.926 28H74.244ZM78.0566 22.996C78.0566 22 78.2606 21.118 78.6686 20.35C79.0886 19.582 79.6526 18.988 80.3606 18.568C81.0806 18.136 81.8726 17.92 82.7366 17.92C83.5166 17.92 84.1946 18.076 84.7706 18.388C85.3586 18.688 85.8266 19.066 86.1746 19.522V18.082H88.2446V28H86.1746V26.524C85.8266 26.992 85.3526 27.382 84.7526 27.694C84.1526 28.006 83.4686 28.162 82.7006 28.162C81.8486 28.162 81.0686 27.946 80.3606 27.514C79.6526 27.07 79.0886 26.458 78.6686 25.678C78.2606 24.886 78.0566 23.992 78.0566 22.996ZM86.1746 23.032C86.1746 22.348 86.0306 21.754 85.7426 21.25C85.4666 20.746 85.1006 20.362 84.6446 20.098C84.1886 19.834 83.6966 19.702 83.1686 19.702C82.6406 19.702 82.1486 19.834 81.6926 20.098C81.2366 20.35 80.8646 20.728 80.5766 21.232C80.3006 21.724 80.1626 22.312 80.1626 22.996C80.1626 23.68 80.3006 24.28 80.5766 24.796C80.8646 25.312 81.2366 25.708 81.6926 25.984C82.1606 26.248 82.6526 26.38 83.1686 26.38C83.6966 26.38 84.1886 26.248 84.6446 25.984C85.1006 25.72 85.4666 25.336 85.7426 24.832C86.0306 24.316 86.1746 23.716 86.1746 23.032ZM102.946 17.92C103.726 17.92 104.422 18.082 105.034 18.406C105.658 18.73 106.144 19.21 106.492 19.846C106.852 20.482 107.032 21.25 107.032 22.15V28H104.998V22.456C104.998 21.568 104.776 20.89 104.332 20.422C103.888 19.942 103.282 19.702 102.514 19.702C101.746 19.702 101.134 19.942 100.678 20.422C100.234 20.89 100.012 21.568 100.012 22.456V28H97.9778V22.456C97.9778 21.568 97.7558 20.89 97.3118 20.422C96.8678 19.942 96.2618 19.702 95.4938 19.702C94.7258 19.702 94.1138 19.942 93.6578 20.422C93.2138 20.89 92.9918 21.568 92.9918 22.456V28H90.9398V18.082H92.9918V19.216C93.3278 18.808 93.7538 18.49 94.2698 18.262C94.7858 18.034 95.3378 17.92 95.9258 17.92C96.7178 17.92 97.4258 18.088 98.0498 18.424C98.6738 18.76 99.1538 19.246 99.4898 19.882C99.7898 19.282 100.258 18.808 100.894 18.46C101.53 18.1 102.214 17.92 102.946 17.92ZM110.687 16.768C110.315 16.768 110.003 16.642 109.751 16.39C109.499 16.138 109.373 15.826 109.373 15.454C109.373 15.082 109.499 14.77 109.751 14.518C110.003 14.266 110.315 14.14 110.687 14.14C111.047 14.14 111.353 14.266 111.605 14.518C111.857 14.77 111.983 15.082 111.983 15.454C111.983 15.826 111.857 16.138 111.605 16.39C111.353 16.642 111.047 16.768 110.687 16.768ZM111.695 18.082V28H109.643V18.082H111.695ZM116.441 14.68V28H114.389V14.68H116.441ZM132.559 19.216C132.559 19.852 132.409 20.452 132.109 21.016C131.809 21.58 131.329 22.042 130.669 22.402C130.009 22.75 129.163 22.924 128.131 22.924H125.863V28H123.811V15.49H128.131C129.091 15.49 129.901 15.658 130.561 15.994C131.233 16.318 131.731 16.762 132.055 17.326C132.391 17.89 132.559 18.52 132.559 19.216ZM128.131 21.25C128.911 21.25 129.493 21.076 129.877 20.728C130.261 20.368 130.453 19.864 130.453 19.216C130.453 17.848 129.679 17.164 128.131 17.164H125.863V21.25H128.131ZM143.444 18.082L137.36 32.662H135.236L137.252 27.838L133.346 18.082H135.632L138.422 25.642L141.32 18.082H143.444ZM148.593 28.162C147.813 28.162 147.111 28.024 146.487 27.748C145.875 27.46 145.389 27.076 145.029 26.596C144.669 26.104 144.477 25.558 144.453 24.958H146.577C146.613 25.378 146.811 25.732 147.171 26.02C147.543 26.296 148.005 26.434 148.557 26.434C149.133 26.434 149.577 26.326 149.889 26.11C150.213 25.882 150.375 25.594 150.375 25.246C150.375 24.874 150.195 24.598 149.835 24.418C149.487 24.238 148.929 24.04 148.161 23.824C147.417 23.62 146.811 23.422 146.343 23.23C145.875 23.038 145.467 22.744 145.119 22.348C144.783 21.952 144.615 21.43 144.615 20.782C144.615 20.254 144.771 19.774 145.083 19.342C145.395 18.898 145.839 18.55 146.415 18.298C147.003 18.046 147.675 17.92 148.431 17.92C149.559 17.92 150.465 18.208 151.149 18.784C151.845 19.348 152.217 20.122 152.265 21.106H150.213C150.177 20.662 149.997 20.308 149.673 20.044C149.349 19.78 148.911 19.648 148.359 19.648C147.819 19.648 147.405 19.75 147.117 19.954C146.829 20.158 146.685 20.428 146.685 20.764C146.685 21.028 146.781 21.25 146.973 21.43C147.165 21.61 147.399 21.754 147.675 21.862C147.951 21.958 148.359 22.084 148.899 22.24C149.619 22.432 150.207 22.63 150.663 22.834C151.131 23.026 151.533 23.314 151.869 23.698C152.205 24.082 152.379 24.592 152.391 25.228C152.391 25.792 152.235 26.296 151.923 26.74C151.611 27.184 151.167 27.532 150.591 27.784C150.027 28.036 149.361 28.162 148.593 28.162ZM156.426 26.326H160.926V28H154.05V26.326L158.568 19.756H154.05V18.082H160.926V19.756L156.426 26.326ZM167.004 23.05L171.576 28H168.804L165.132 23.734V28H163.08V14.68H165.132V22.42L168.732 18.082H171.576L167.004 23.05ZM177.349 28.162C176.413 28.162 175.567 27.952 174.811 27.532C174.055 27.1 173.461 26.5 173.029 25.732C172.597 24.952 172.381 24.052 172.381 23.032C172.381 22.024 172.603 21.13 173.047 20.35C173.491 19.57 174.097 18.97 174.865 18.55C175.633 18.13 176.491 17.92 177.439 17.92C178.387 17.92 179.245 18.13 180.013 18.55C180.781 18.97 181.387 19.57 181.831 20.35C182.275 21.13 182.497 22.024 182.497 23.032C182.497 24.04 182.269 24.934 181.813 25.714C181.357 26.494 180.733 27.1 179.941 27.532C179.161 27.952 178.297 28.162 177.349 28.162ZM177.349 26.38C177.877 26.38 178.369 26.254 178.825 26.002C179.293 25.75 179.671 25.372 179.959 24.868C180.247 24.364 180.391 23.752 180.391 23.032C180.391 22.312 180.253 21.706 179.977 21.214C179.701 20.71 179.335 20.332 178.879 20.08C178.423 19.828 177.931 19.702 177.403 19.702C176.875 19.702 176.383 19.828 175.927 20.08C175.483 20.332 175.129 20.71 174.865 21.214C174.601 21.706 174.469 22.312 174.469 23.032C174.469 24.1 174.739 24.928 175.279 25.516C175.831 26.092 176.521 26.38 177.349 26.38ZM197.846 18.082L194.768 28H192.608L190.61 20.674L188.612 28H186.452L183.356 18.082H185.444L187.514 26.056L189.62 18.082H191.762L193.778 26.02L195.83 18.082H197.846ZM202.979 28.162C202.199 28.162 201.497 28.024 200.873 27.748C200.261 27.46 199.775 27.076 199.415 26.596C199.055 26.104 198.863 25.558 198.839 24.958H200.963C200.999 25.378 201.197 25.732 201.557 26.02C201.929 26.296 202.391 26.434 202.943 26.434C203.519 26.434 203.963 26.326 204.275 26.11C204.599 25.882 204.761 25.594 204.761 25.246C204.761 24.874 204.581 24.598 204.221 24.418C203.873 24.238 203.315 24.04 202.547 23.824C201.803 23.62 201.197 23.422 200.729 23.23C200.261 23.038 199.853 22.744 199.505 22.348C199.169 21.952 199.001 21.43 199.001 20.782C199.001 20.254 199.157 19.774 199.469 19.342C199.781 18.898 200.225 18.55 200.801 18.298C201.389 18.046 202.061 17.92 202.817 17.92C203.945 17.92 204.851 18.208 205.535 18.784C206.231 19.348 206.603 20.122 206.651 21.106H204.599C204.563 20.662 204.383 20.308 204.059 20.044C203.735 19.78 203.297 19.648 202.745 19.648C202.205 19.648 201.791 19.75 201.503 19.954C201.215 20.158 201.071 20.428 201.071 20.764C201.071 21.028 201.167 21.25 201.359 21.43C201.551 21.61 201.785 21.754 202.061 21.862C202.337 21.958 202.745 22.084 203.285 22.24C204.005 22.432 204.593 22.63 205.049 22.834C205.517 23.026 205.919 23.314 206.255 23.698C206.591 24.082 206.765 24.592 206.777 25.228C206.777 25.792 206.621 26.296 206.309 26.74C205.997 27.184 205.553 27.532 204.977 27.784C204.413 28.036 203.747 28.162 202.979 28.162ZM212.919 23.05L217.491 28H214.719L211.047 23.734V28H208.995V14.68H211.047V22.42L214.647 18.082H217.491L212.919 23.05ZM220.005 16.768C219.633 16.768 219.321 16.642 219.069 16.39C218.817 16.138 218.691 15.826 218.691 15.454C218.691 15.082 218.817 14.77 219.069 14.518C219.321 14.266 219.633 14.14 220.005 14.14C220.365 14.14 220.671 14.266 220.923 14.518C221.175 14.77 221.301 15.082 221.301 15.454C221.301 15.826 221.175 16.138 220.923 16.39C220.671 16.642 220.365 16.768 220.005 16.768ZM221.013 18.082V28H218.961V18.082H221.013ZM69.576 49.084C69.024 49.084 68.528 48.988 68.088 48.796C67.656 48.596 67.316 48.324 67.068 47.98C66.82 47.628 66.692 47.224 66.684 46.768H67.848C67.888 47.16 68.048 47.492 68.328 47.764C68.616 48.028 69.032 48.16 69.576 48.16C70.096 48.16 70.504 48.032 70.8 47.776C71.104 47.512 71.256 47.176 71.256 46.768C71.256 46.448 71.168 46.188 70.992 45.988C70.816 45.788 70.596 45.636 70.332 45.532C70.068 45.428 69.712 45.316 69.264 45.196C68.712 45.052 68.268 44.908 67.932 44.764C67.604 44.62 67.32 44.396 67.08 44.092C66.848 43.78 66.732 43.364 66.732 42.844C66.732 42.388 66.848 41.984 67.08 41.632C67.312 41.28 67.636 41.008 68.052 40.816C68.476 40.624 68.96 40.528 69.504 40.528C70.288 40.528 70.928 40.724 71.424 41.116C71.928 41.508 72.212 42.028 72.276 42.676H71.076C71.036 42.356 70.868 42.076 70.572 41.836C70.276 41.588 69.884 41.464 69.396 41.464C68.94 41.464 68.568 41.584 68.28 41.824C67.992 42.056 67.848 42.384 67.848 42.808C67.848 43.112 67.932 43.36 68.1 43.552C68.276 43.744 68.488 43.892 68.736 43.996C68.992 44.092 69.348 44.204 69.804 44.332C70.356 44.484 70.8 44.636 71.136 44.788C71.472 44.932 71.76 45.16 72 45.472C72.24 45.776 72.36 46.192 72.36 46.72C72.36 47.128 72.252 47.512 72.036 47.872C71.82 48.232 71.5 48.524 71.076 48.748C70.652 48.972 70.152 49.084 69.576 49.084ZM76.835 49.108C76.219 49.108 75.659 48.968 75.155 48.688C74.659 48.408 74.267 48.012 73.979 47.5C73.699 46.98 73.559 46.38 73.559 45.7C73.559 45.028 73.703 44.436 73.991 43.924C74.287 43.404 74.687 43.008 75.191 42.736C75.695 42.456 76.259 42.316 76.883 42.316C77.507 42.316 78.071 42.456 78.575 42.736C79.079 43.008 79.475 43.4 79.763 43.912C80.059 44.424 80.207 45.02 80.207 45.7C80.207 46.38 80.055 46.98 79.751 47.5C79.455 48.012 79.051 48.408 78.539 48.688C78.027 48.968 77.459 49.108 76.835 49.108ZM76.835 48.148C77.227 48.148 77.595 48.056 77.939 47.872C78.283 47.688 78.559 47.412 78.767 47.044C78.983 46.676 79.091 46.228 79.091 45.7C79.091 45.172 78.987 44.724 78.779 44.356C78.571 43.988 78.299 43.716 77.963 43.54C77.627 43.356 77.263 43.264 76.871 43.264C76.471 43.264 76.103 43.356 75.767 43.54C75.439 43.716 75.175 43.988 74.975 44.356C74.775 44.724 74.675 45.172 74.675 45.7C74.675 46.236 74.771 46.688 74.963 47.056C75.163 47.424 75.427 47.7 75.755 47.884C76.083 48.06 76.443 48.148 76.835 48.148ZM84.3188 43.324H82.9388V49H81.8468V43.324H80.9948V42.424H81.8468V41.956C81.8468 41.22 82.0348 40.684 82.4108 40.348C82.7948 40.004 83.4068 39.832 84.2467 39.832V40.744C83.7668 40.744 83.4268 40.84 83.2268 41.032C83.0348 41.216 82.9388 41.524 82.9388 41.956V42.424H84.3188V43.324ZM86.924 43.324V47.2C86.924 47.52 86.992 47.748 87.128 47.884C87.264 48.012 87.5 48.076 87.836 48.076H88.64V49H87.656C87.048 49 86.592 48.86 86.288 48.58C85.984 48.3 85.832 47.84 85.832 47.2V43.324H84.98V42.424H85.832V40.768H86.924V42.424H88.64V43.324H86.924ZM98.7231 42.424L96.6711 49H95.5431L93.9591 43.78L92.3751 49H91.2471L89.1831 42.424H90.2991L91.8111 47.944L93.4431 42.424H94.5591L96.1551 47.956L97.6431 42.424H98.7231ZM99.3988 45.688C99.3988 45.016 99.5348 44.428 99.8068 43.924C100.079 43.412 100.451 43.016 100.923 42.736C101.403 42.456 101.935 42.316 102.519 42.316C103.095 42.316 103.595 42.44 104.019 42.688C104.443 42.936 104.759 43.248 104.967 43.624V42.424H106.071V49H104.967V47.776C104.751 48.16 104.427 48.48 103.995 48.736C103.571 48.984 103.075 49.108 102.507 49.108C101.923 49.108 101.395 48.964 100.923 48.676C100.451 48.388 100.079 47.984 99.8068 47.464C99.5348 46.944 99.3988 46.352 99.3988 45.688ZM104.967 45.7C104.967 45.204 104.867 44.772 104.667 44.404C104.467 44.036 104.195 43.756 103.851 43.564C103.515 43.364 103.143 43.264 102.735 43.264C102.327 43.264 101.955 43.36 101.619 43.552C101.283 43.744 101.015 44.024 100.815 44.392C100.615 44.76 100.515 45.192 100.515 45.688C100.515 46.192 100.615 46.632 100.815 47.008C101.015 47.376 101.283 47.66 101.619 47.86C101.955 48.052 102.327 48.148 102.735 48.148C103.143 48.148 103.515 48.052 103.851 47.86C104.195 47.66 104.467 47.376 104.667 47.008C104.867 46.632 104.967 46.196 104.967 45.7ZM109.008 43.492C109.2 43.116 109.472 42.824 109.824 42.616C110.184 42.408 110.62 42.304 111.132 42.304V43.432H110.844C109.62 43.432 109.008 44.096 109.008 45.424V49H107.916V42.424H109.008V43.492ZM118.393 45.46C118.393 45.668 118.381 45.888 118.357 46.12H113.101C113.141 46.768 113.361 47.276 113.761 47.644C114.169 48.004 114.661 48.184 115.237 48.184C115.709 48.184 116.101 48.076 116.413 47.86C116.733 47.636 116.957 47.34 117.085 46.972H118.261C118.085 47.604 117.733 48.12 117.205 48.52C116.677 48.912 116.021 49.108 115.237 49.108C114.613 49.108 114.053 48.968 113.557 48.688C113.069 48.408 112.685 48.012 112.405 47.5C112.125 46.98 111.985 46.38 111.985 45.7C111.985 45.02 112.121 44.424 112.393 43.912C112.665 43.4 113.045 43.008 113.533 42.736C114.029 42.456 114.597 42.316 115.237 42.316C115.861 42.316 116.413 42.452 116.893 42.724C117.373 42.996 117.741 43.372 117.997 43.852C118.261 44.324 118.393 44.86 118.393 45.46ZM117.265 45.232C117.265 44.816 117.173 44.46 116.989 44.164C116.805 43.86 116.553 43.632 116.233 43.48C115.921 43.32 115.573 43.24 115.189 43.24C114.637 43.24 114.165 43.416 113.773 43.768C113.389 44.12 113.169 44.608 113.113 45.232H117.265ZM124.125 41.524V44.32H127.173V45.22H124.125V48.1H127.533V49H123.033V40.624H127.533V41.524H124.125ZM132.39 42.304C133.19 42.304 133.838 42.548 134.334 43.036C134.83 43.516 135.078 44.212 135.078 45.124V49H133.998V45.28C133.998 44.624 133.834 44.124 133.506 43.78C133.178 43.428 132.73 43.252 132.162 43.252C131.586 43.252 131.126 43.432 130.782 43.792C130.446 44.152 130.278 44.676 130.278 45.364V49H129.186V42.424H130.278V43.36C130.494 43.024 130.786 42.764 131.154 42.58C131.53 42.396 131.942 42.304 132.39 42.304ZM139.574 42.316C140.142 42.316 140.638 42.44 141.062 42.688C141.494 42.936 141.814 43.248 142.022 43.624V42.424H143.126V49.144C143.126 49.744 142.998 50.276 142.742 50.74C142.486 51.212 142.118 51.58 141.638 51.844C141.166 52.108 140.614 52.24 139.982 52.24C139.118 52.24 138.398 52.036 137.822 51.628C137.246 51.22 136.906 50.664 136.802 49.96H137.882C138.002 50.36 138.25 50.68 138.626 50.92C139.002 51.168 139.454 51.292 139.982 51.292C140.582 51.292 141.07 51.104 141.446 50.728C141.83 50.352 142.022 49.824 142.022 49.144V47.764C141.806 48.148 141.486 48.468 141.062 48.724C140.638 48.98 140.142 49.108 139.574 49.108C138.99 49.108 138.458 48.964 137.978 48.676C137.506 48.388 137.134 47.984 136.862 47.464C136.59 46.944 136.454 46.352 136.454 45.688C136.454 45.016 136.59 44.428 136.862 43.924C137.134 43.412 137.506 43.016 137.978 42.736C138.458 42.456 138.99 42.316 139.574 42.316ZM142.022 45.7C142.022 45.204 141.922 44.772 141.722 44.404C141.522 44.036 141.25 43.756 140.906 43.564C140.57 43.364 140.198 43.264 139.79 43.264C139.382 43.264 139.01 43.36 138.674 43.552C138.338 43.744 138.07 44.024 137.87 44.392C137.67 44.76 137.57 45.192 137.57 45.688C137.57 46.192 137.67 46.632 137.87 47.008C138.07 47.376 138.338 47.66 138.674 47.86C139.01 48.052 139.382 48.148 139.79 48.148C140.198 48.148 140.57 48.052 140.906 47.86C141.25 47.66 141.522 47.376 141.722 47.008C141.922 46.632 142.022 46.196 142.022 45.7ZM145.535 41.356C145.327 41.356 145.151 41.284 145.007 41.14C144.863 40.996 144.791 40.82 144.791 40.612C144.791 40.404 144.863 40.228 145.007 40.084C145.151 39.94 145.327 39.868 145.535 39.868C145.735 39.868 145.903 39.94 146.039 40.084C146.183 40.228 146.255 40.404 146.255 40.612C146.255 40.82 146.183 40.996 146.039 41.14C145.903 41.284 145.735 41.356 145.535 41.356ZM146.063 42.424V49H144.971V42.424H146.063ZM151.128 42.304C151.928 42.304 152.576 42.548 153.072 43.036C153.568 43.516 153.816 44.212 153.816 45.124V49H152.736V45.28C152.736 44.624 152.572 44.124 152.244 43.78C151.916 43.428 151.468 43.252 150.9 43.252C150.324 43.252 149.864 43.432 149.52 43.792C149.184 44.152 149.016 44.676 149.016 45.364V49H147.924V42.424H149.016V43.36C149.232 43.024 149.524 42.764 149.892 42.58C150.268 42.396 150.68 42.304 151.128 42.304ZM161.6 45.46C161.6 45.668 161.588 45.888 161.564 46.12H156.308C156.348 46.768 156.568 47.276 156.968 47.644C157.376 48.004 157.868 48.184 158.444 48.184C158.916 48.184 159.308 48.076 159.62 47.86C159.94 47.636 160.164 47.34 160.292 46.972H161.468C161.292 47.604 160.94 48.12 160.412 48.52C159.884 48.912 159.228 49.108 158.444 49.108C157.82 49.108 157.26 48.968 156.764 48.688C156.276 48.408 155.892 48.012 155.612 47.5C155.332 46.98 155.192 46.38 155.192 45.7C155.192 45.02 155.328 44.424 155.6 43.912C155.872 43.4 156.252 43.008 156.74 42.736C157.236 42.456 157.804 42.316 158.444 42.316C159.068 42.316 159.62 42.452 160.1 42.724C160.58 42.996 160.948 43.372 161.204 43.852C161.468 44.324 161.6 44.86 161.6 45.46ZM160.472 45.232C160.472 44.816 160.38 44.46 160.196 44.164C160.012 43.86 159.76 43.632 159.44 43.48C159.128 43.32 158.78 43.24 158.396 43.24C157.844 43.24 157.372 43.416 156.98 43.768C156.596 44.12 156.376 44.608 156.32 45.232H160.472ZM169.041 45.46C169.041 45.668 169.029 45.888 169.005 46.12H163.749C163.789 46.768 164.009 47.276 164.409 47.644C164.817 48.004 165.309 48.184 165.885 48.184C166.357 48.184 166.749 48.076 167.061 47.86C167.381 47.636 167.605 47.34 167.733 46.972H168.909C168.733 47.604 168.381 48.12 167.853 48.52C167.325 48.912 166.669 49.108 165.885 49.108C165.261 49.108 164.701 48.968 164.205 48.688C163.717 48.408 163.333 48.012 163.053 47.5C162.773 46.98 162.633 46.38 162.633 45.7C162.633 45.02 162.769 44.424 163.041 43.912C163.313 43.4 163.693 43.008 164.181 42.736C164.677 42.456 165.245 42.316 165.885 42.316C166.509 42.316 167.061 42.452 167.541 42.724C168.021 42.996 168.389 43.372 168.645 43.852C168.909 44.324 169.041 44.86 169.041 45.46ZM167.913 45.232C167.913 44.816 167.821 44.46 167.637 44.164C167.453 43.86 167.201 43.632 166.881 43.48C166.569 43.32 166.221 43.24 165.837 43.24C165.285 43.24 164.813 43.416 164.421 43.768C164.037 44.12 163.817 44.608 163.761 45.232H167.913ZM171.575 43.492C171.767 43.116 172.039 42.824 172.391 42.616C172.751 42.408 173.187 42.304 173.699 42.304V43.432H173.411C172.187 43.432 171.575 44.096 171.575 45.424V49H170.483V42.424H171.575V43.492Z" fill="currentColor"/>
<path d="M48.9185 49.141L32.1624 30.3458L23.2495 38.7522V57.7121" stroke="currentColor" stroke-width="2" stroke-linecap="round" stroke-linejoin="round"/>
<path d="M48.9185 3.5L23.2495 28.3458V3.5C23.2495 3.5 1.48644 3.65097 1.50001 20.0566C1.51021 32.3593 15.3406 34.7522 15.3406 34.7522" stroke="currentColor" stroke-width="2" stroke-linecap="round" stroke-linejoin="round"/>
<path d="M9 53C11.2091 53 13 51.2091 13 49C13 46.7909 11.2091 45 9 45C6.79086 45 5 46.7909 5 49C5 51.2091 6.79086 53 9 53Z" stroke="currentColor" stroke-width="2" stroke-linecap="round" stroke-linejoin="round"/>
</svg>
