<svg xmlns="http://www.w3.org/2000/svg" width="222" height="59" fill="none" style="color:hsla(0,0%,4%)"><style>@media (prefers-color-scheme:dark){:root{color:hsla(0,0%,96%)}}</style><path fill="currentColor" d="m74.244 28-4.842-5.598V28H67.35V15.49h2.052v5.706l4.86-5.706h2.574L71.4 21.754 76.926 28zm3.813-5.004c0-.996.204-1.878.612-2.646.42-.768.984-1.362 1.692-1.782a4.532 4.532 0 0 1 2.376-.648c.78 0 1.458.156 2.034.468.588.3 1.056.678 1.404 1.134v-1.44h2.07V28h-2.07v-1.476c-.348.468-.822.858-1.422 1.17-.6.312-1.284.468-2.052.468a4.406 4.406 0 0 1-2.34-.648 4.81 4.81 0 0 1-1.692-1.836c-.408-.792-.612-1.686-.612-2.682m8.118.036c0-.684-.144-1.278-.432-1.782a2.907 2.907 0 0 0-1.098-1.152 2.896 2.896 0 0 0-1.476-.396c-.528 0-1.02.132-1.476.396-.456.252-.828.63-1.116 1.134-.276.492-.414 1.08-.414 1.764 0 .684.138 1.284.414 1.8.288.516.66.912 1.116 1.188.468.264.96.396 1.476.396.528 0 1.02-.132 1.476-.396a2.907 2.907 0 0 0 1.098-1.152c.288-.516.432-1.116.432-1.8m16.771-5.112c.78 0 1.476.162 2.088.486.624.324 1.11.804 1.458 1.44.36.636.54 1.404.54 2.304V28h-2.034v-5.544c0-.888-.222-1.566-.666-2.034-.444-.48-1.05-.72-1.818-.72s-1.38.24-1.836.72c-.444.468-.666 1.146-.666 2.034V28h-2.034v-5.544c0-.888-.222-1.566-.666-2.034-.444-.48-1.05-.72-1.818-.72s-1.38.24-1.836.72c-.444.468-.666 1.146-.666 2.034V28H90.94v-9.918h2.052v1.134a3.412 3.412 0 0 1 1.278-.954 4.051 4.051 0 0 1 1.656-.342c.792 0 1.5.168 2.124.504a3.445 3.445 0 0 1 1.44 1.458c.3-.6.768-1.074 1.404-1.422.636-.36 1.32-.54 2.052-.54m7.741-1.152c-.372 0-.684-.126-.936-.378a1.271 1.271 0 0 1-.378-.936c0-.372.126-.684.378-.936s.564-.378.936-.378c.36 0 .666.126.918.378s.378.564.378.936c0 .372-.126.684-.378.936a1.25 1.25 0 0 1-.918.378m1.008 1.314V28h-2.052v-9.918zm4.746-3.402V28h-2.052V14.68zm16.118 4.536c0 .636-.15 1.236-.45 1.8-.3.564-.78 1.026-1.44 1.386-.66.348-1.506.522-2.538.522h-2.268V28h-2.052V15.49h4.32c.96 0 1.77.168 2.43.504.672.324 1.17.768 1.494 1.332.336.564.504 1.194.504 1.89m-4.428 2.034c.78 0 1.362-.174 1.746-.522.384-.36.576-.864.576-1.512 0-1.368-.774-2.052-2.322-2.052h-2.268v4.086zm15.313-3.168-6.084 14.58h-2.124l2.016-4.824-3.906-9.756h2.286l2.79 7.56 2.898-7.56zm5.149 10.08c-.78 0-1.482-.138-2.106-.414-.612-.288-1.098-.672-1.458-1.152a2.915 2.915 0 0 1-.576-1.638h2.124c.036.42.234.774.594 1.062.372.276.834.414 1.386.414.576 0 1.02-.108 1.332-.324.324-.228.486-.516.486-.864 0-.372-.18-.648-.54-.828-.348-.18-.906-.378-1.674-.594a16.244 16.244 0 0 1-1.818-.594 3.263 3.263 0 0 1-1.224-.882c-.336-.396-.504-.918-.504-1.566 0-.528.156-1.008.468-1.44.312-.444.756-.792 1.332-1.044.588-.252 1.26-.378 2.016-.378 1.128 0 2.034.288 2.718.864.696.564 1.068 1.338 1.116 2.322h-2.052c-.036-.444-.216-.798-.54-1.062-.324-.264-.762-.396-1.314-.396-.54 0-.954.102-1.242.306-.288.204-.432.474-.432.81 0 .264.096.486.288.666.192.18.426.324.702.432.276.096.684.222 1.224.378.72.192 1.308.39 1.764.594.468.192.87.48 1.206.864.336.384.51.894.522 1.53 0 .564-.156 1.068-.468 1.512-.312.444-.756.792-1.332 1.044-.564.252-1.23.378-1.998.378m7.833-1.836h4.5V28h-6.876v-1.674l4.518-6.57h-4.518v-1.674h6.876v1.674zm10.578-3.276 4.572 4.95h-2.772l-3.672-4.266V28h-2.052V14.68h2.052v7.74l3.6-4.338h2.844zm10.345 5.112c-.936 0-1.782-.21-2.538-.63a4.67 4.67 0 0 1-1.782-1.8c-.432-.78-.648-1.68-.648-2.7 0-1.008.222-1.902.666-2.682a4.6 4.6 0 0 1 1.818-1.8c.768-.42 1.626-.63 2.574-.63s1.806.21 2.574.63a4.6 4.6 0 0 1 1.818 1.8c.444.78.666 1.674.666 2.682s-.228 1.902-.684 2.682a4.783 4.783 0 0 1-1.872 1.818c-.78.42-1.644.63-2.592.63m0-1.782c.528 0 1.02-.126 1.476-.378.468-.252.846-.63 1.134-1.134.288-.504.432-1.116.432-1.836s-.138-1.326-.414-1.818c-.276-.504-.642-.882-1.098-1.134a3.003 3.003 0 0 0-1.476-.378c-.528 0-1.02.126-1.476.378-.444.252-.798.63-1.062 1.134-.264.492-.396 1.098-.396 1.818 0 1.068.27 1.896.81 2.484.552.576 1.242.864 2.07.864m20.497-8.298L194.768 28h-2.16l-1.998-7.326L188.612 28h-2.16l-3.096-9.918h2.088l2.07 7.974 2.106-7.974h2.142l2.016 7.938 2.052-7.938zm5.133 10.08c-.78 0-1.482-.138-2.106-.414-.612-.288-1.098-.672-1.458-1.152a2.915 2.915 0 0 1-.576-1.638h2.124c.036.42.234.774.594 1.062.372.276.834.414 1.386.414.576 0 1.02-.108 1.332-.324.324-.228.486-.516.486-.864 0-.372-.18-.648-.54-.828-.348-.18-.906-.378-1.674-.594a16.244 16.244 0 0 1-1.818-.594 3.263 3.263 0 0 1-1.224-.882c-.336-.396-.504-.918-.504-1.566 0-.528.156-1.008.468-1.44.312-.444.756-.792 1.332-1.044.588-.252 1.26-.378 2.016-.378 1.128 0 2.034.288 2.718.864.696.564 1.068 1.338 1.116 2.322h-2.052c-.036-.444-.216-.798-.54-1.062-.324-.264-.762-.396-1.314-.396-.54 0-.954.102-1.242.306-.288.204-.432.474-.432.81 0 .264.096.486.288.666.192.18.426.324.702.432.276.096.684.222 1.224.378.72.192 1.308.39 1.764.594.468.192.87.48 1.206.864.336.384.51.894.522 1.53 0 .564-.156 1.068-.468 1.512-.312.444-.756.792-1.332 1.044-.564.252-1.23.378-1.998.378m9.94-5.112 4.572 4.95h-2.772l-3.672-4.266V28h-2.052V14.68h2.052v7.74l3.6-4.338h2.844zm7.086-6.282c-.372 0-.684-.126-.936-.378a1.271 1.271 0 0 1-.378-.936c0-.372.126-.684.378-.936s.564-.378.936-.378c.36 0 .666.126.918.378s.378.564.378.936c0 .372-.126.684-.378.936a1.25 1.25 0 0 1-.918.378m1.008 1.314V28h-2.052v-9.918zM69.576 49.084a3.685 3.685 0 0 1-1.488-.288 2.542 2.542 0 0 1-1.02-.816 2.119 2.119 0 0 1-.384-1.212h1.164c.04.392.2.724.48.996.288.264.704.396 1.248.396.52 0 .928-.128 1.224-.384.304-.264.456-.6.456-1.008 0-.32-.088-.58-.264-.78a1.687 1.687 0 0 0-.66-.456c-.264-.104-.62-.216-1.068-.336a9.703 9.703 0 0 1-1.332-.432 2.212 2.212 0 0 1-.852-.672c-.232-.312-.348-.728-.348-1.248 0-.456.116-.86.348-1.212.232-.352.556-.624.972-.816.424-.192.908-.288 1.452-.288.784 0 1.424.196 1.92.588.504.392.788.912.852 1.56h-1.2c-.04-.32-.208-.6-.504-.84-.296-.248-.688-.372-1.176-.372-.456 0-.828.12-1.116.36-.288.232-.432.56-.432.984 0 .304.084.552.252.744.176.192.388.34.636.444.256.096.612.208 1.068.336.552.152.996.304 1.332.456.336.144.624.372.864.684.24.304.36.72.36 1.248 0 .408-.108.792-.324 1.152-.216.36-.536.652-.96.876-.424.224-.924.336-1.5.336m7.259.024a3.4 3.4 0 0 1-1.68-.42 3.053 3.053 0 0 1-1.176-1.188c-.28-.52-.42-1.12-.42-1.8 0-.672.144-1.264.432-1.776.296-.52.696-.916 1.2-1.188a3.424 3.424 0 0 1 1.692-.42c.624 0 1.188.14 1.692.42.504.272.9.664 1.188 1.176.296.512.444 1.108.444 1.788 0 .68-.152 1.28-.456 1.8a3.09 3.09 0 0 1-1.212 1.188c-.512.28-1.08.42-1.704.42m0-.96c.392 0 .76-.092 1.104-.276.344-.184.62-.46.828-.828.216-.368.324-.816.324-1.344 0-.528-.104-.976-.312-1.344a2.003 2.003 0 0 0-.816-.816 2.237 2.237 0 0 0-1.092-.276c-.4 0-.768.092-1.104.276a1.951 1.951 0 0 0-.792.816c-.2.368-.3.816-.3 1.344 0 .536.096.988.288 1.356.2.368.464.644.792.828.328.176.688.264 1.08.264m7.484-4.824h-1.38V49h-1.092v-5.676h-.852v-.9h.852v-.468c0-.736.188-1.272.564-1.608.384-.344.996-.516 1.836-.516v.912c-.48 0-.82.096-1.02.288-.192.184-.288.492-.288.924v.468h1.38zm2.605 0V47.2c0 .32.068.548.204.684.136.128.372.192.708.192h.804V49h-.984c-.608 0-1.064-.14-1.368-.42-.304-.28-.456-.74-.456-1.38v-3.876h-.852v-.9h.852v-1.656h1.092v1.656h1.716v.9zm11.8-.9L96.67 49h-1.128l-1.584-5.22L92.375 49h-1.128l-2.064-6.576H90.3l1.512 5.52 1.632-5.52h1.116l1.596 5.532 1.488-5.532zm.675 3.264c0-.672.136-1.26.408-1.764a2.966 2.966 0 0 1 1.116-1.188 3.11 3.11 0 0 1 1.596-.42c.576 0 1.076.124 1.5.372.424.248.74.56.948.936v-1.2h1.104V49h-1.104v-1.224c-.216.384-.54.704-.972.96-.424.248-.92.372-1.488.372a2.98 2.98 0 0 1-1.584-.432 3.032 3.032 0 0 1-1.116-1.212c-.272-.52-.408-1.112-.408-1.776m5.568.012c0-.496-.1-.928-.3-1.296a2.065 2.065 0 0 0-.816-.84 2.14 2.14 0 0 0-1.116-.3c-.408 0-.78.096-1.116.288a2.09 2.09 0 0 0-.804.84c-.2.368-.3.8-.3 1.296 0 .504.1.944.3 1.32.2.368.468.652.804.852a2.21 2.21 0 0 0 1.116.288c.408 0 .78-.096 1.116-.288.344-.2.616-.484.816-.852.2-.376.3-.812.3-1.308m4.041-2.208c.192-.376.464-.668.816-.876.36-.208.796-.312 1.308-.312v1.128h-.288c-1.224 0-1.836.664-1.836 1.992V49h-1.092v-6.576h1.092zm9.385 1.968c0 .208-.012.428-.036.66h-5.256c.04.648.26 1.156.66 1.524.408.36.9.54 1.476.54.472 0 .864-.108 1.176-.324.32-.224.544-.52.672-.888h1.176a2.856 2.856 0 0 1-1.056 1.548c-.528.392-1.184.588-1.968.588-.624 0-1.184-.14-1.68-.42a2.995 2.995 0 0 1-1.152-1.188c-.28-.52-.42-1.12-.42-1.8 0-.68.136-1.276.408-1.788a2.836 2.836 0 0 1 1.14-1.176c.496-.28 1.064-.42 1.704-.42.624 0 1.176.136 1.656.408.48.272.848.648 1.104 1.128.264.472.396 1.008.396 1.608m-1.128-.228c0-.416-.092-.772-.276-1.068a1.737 1.737 0 0 0-.756-.684c-.312-.16-.66-.24-1.044-.24-.552 0-1.024.176-1.416.528-.384.352-.604.84-.66 1.464zm6.86-3.708v2.796h3.048v.9h-3.048v2.88h3.408v.9h-4.5v-8.376h4.5v.9zm8.265.78c.8 0 1.448.244 1.944.732.496.48.744 1.176.744 2.088V49h-1.08v-3.72c0-.656-.164-1.156-.492-1.5-.328-.352-.776-.528-1.344-.528-.576 0-1.036.18-1.38.54-.336.36-.504.884-.504 1.572V49h-1.092v-6.576h1.092v.936c.216-.336.508-.596.876-.78a2.774 2.774 0 0 1 1.236-.276m7.184.012c.568 0 1.064.124 1.488.372.432.248.752.56.96.936v-1.2h1.104v6.72c0 .6-.128 1.132-.384 1.596-.256.472-.624.84-1.104 1.104-.472.264-1.024.396-1.656.396-.864 0-1.584-.204-2.16-.612a2.392 2.392 0 0 1-1.02-1.668h1.08c.12.4.368.72.744.96.376.248.828.372 1.356.372.6 0 1.088-.188 1.464-.564.384-.376.576-.904.576-1.584v-1.38a2.628 2.628 0 0 1-.96.96c-.424.256-.92.384-1.488.384a3.043 3.043 0 0 1-1.596-.432 3.03 3.03 0 0 1-1.116-1.212c-.272-.52-.408-1.112-.408-1.776 0-.672.136-1.26.408-1.764a2.964 2.964 0 0 1 1.116-1.188 3.11 3.11 0 0 1 1.596-.42m2.448 3.384c0-.496-.1-.928-.3-1.296a2.065 2.065 0 0 0-.816-.84 2.14 2.14 0 0 0-1.116-.3c-.408 0-.78.096-1.116.288a2.09 2.09 0 0 0-.804.84c-.2.368-.3.8-.3 1.296 0 .504.1.944.3 1.32.2.368.468.652.804.852a2.21 2.21 0 0 0 1.116.288c.408 0 .78-.096 1.116-.288.344-.2.616-.484.816-.852.2-.376.3-.812.3-1.308m3.513-4.344a.718.718 0 0 1-.528-.216.718.718 0 0 1-.216-.528c0-.208.072-.384.216-.528a.718.718 0 0 1 .528-.216c.2 0 .368.072.504.216.144.144.216.32.216.528a.718.718 0 0 1-.216.528.666.666 0 0 1-.504.216m.528 1.068V49h-1.092v-6.576zm5.065-.12c.8 0 1.448.244 1.944.732.496.48.744 1.176.744 2.088V49h-1.08v-3.72c0-.656-.164-1.156-.492-1.5-.328-.352-.776-.528-1.344-.528-.576 0-1.036.18-1.38.54-.336.36-.504.884-.504 1.572V49h-1.092v-6.576h1.092v.936c.216-.336.508-.596.876-.78a2.774 2.774 0 0 1 1.236-.276M161.6 45.46c0 .208-.012.428-.036.66h-5.256c.04.648.26 1.156.66 1.524.408.36.9.54 1.476.54.472 0 .864-.108 1.176-.324.32-.224.544-.52.672-.888h1.176a2.856 2.856 0 0 1-1.056 1.548c-.528.392-1.184.588-1.968.588-.624 0-1.184-.14-1.68-.42a2.995 2.995 0 0 1-1.152-1.188c-.28-.52-.42-1.12-.42-1.8 0-.68.136-1.276.408-1.788a2.836 2.836 0 0 1 1.14-1.176c.496-.28 1.064-.42 1.704-.42.624 0 1.176.136 1.656.408.48.272.848.648 1.104 1.128.264.472.396 1.008.396 1.608m-1.128-.228c0-.416-.092-.772-.276-1.068a1.737 1.737 0 0 0-.756-.684c-.312-.16-.66-.24-1.044-.24-.552 0-1.024.176-1.416.528-.384.352-.604.84-.66 1.464zm8.569.228c0 .208-.012.428-.036.66h-5.256c.04.648.26 1.156.66 1.524.408.36.9.54 1.476.54.472 0 .864-.108 1.176-.324.32-.224.544-.52.672-.888h1.176a2.856 2.856 0 0 1-1.056 1.548c-.528.392-1.184.588-1.968.588-.624 0-1.184-.14-1.68-.42a2.995 2.995 0 0 1-1.152-1.188c-.28-.52-.42-1.12-.42-1.8 0-.68.136-1.276.408-1.788a2.836 2.836 0 0 1 1.14-1.176c.496-.28 1.064-.42 1.704-.42.624 0 1.176.136 1.656.408.48.272.848.648 1.104 1.128.264.472.396 1.008.396 1.608m-1.128-.228c0-.416-.092-.772-.276-1.068a1.737 1.737 0 0 0-.756-.684c-.312-.16-.66-.24-1.044-.24-.552 0-1.024.176-1.416.528-.384.352-.604.84-.66 1.464zm3.662-1.74c.192-.376.464-.668.816-.876.36-.208.796-.312 1.308-.312v1.128h-.288c-1.224 0-1.836.664-1.836 1.992V49h-1.092v-6.576h1.092z"/><path stroke="currentColor" stroke-linecap="round" stroke-linejoin="round" stroke-width="2" d="M48.919 49.141 32.162 30.346l-8.912 8.406v18.96M48.919 3.5l-25.67 24.846V3.5S1.486 3.651 1.5 20.057c.01 12.302 13.84 14.695 13.84 14.695M9 53a4 4 0 1 0 0-8 4 4 0 0 0 0 8"/></svg>